HIERARCHY
ROOT Hips
{
	OFFSET 0.000000 0.000000 0.000000
	CHANNELS 6 Xposition Yposition Zposition Zrotation Xrotation Yrotation
	JOINT Spine1
	{
		OFFSET 0.000000 -0.000001 4.165421
		CHANNELS 6 Xposition Yposition Zposition Zrotation Xrotation Yrotation
		JOINT Neck
		{
			OFFSET 0.000000 -0.000001 3.320820
			CHANNELS 6 Xposition Yposition Zposition Zrotation Xrotation Yrotation
			JOINT Head
			{
				OFFSET 0.000000 -0.272454 2.111520
				CHANNELS 6 Xposition Yposition Zposition Zrotation Xrotation Yrotation
				End Site
				{
					OFFSET 0.000000 -0.000000 2.724533
				}
			}
		}
		JOINT LeftShoulder
		{
			OFFSET 0.548650 0.072018 2.681385
			CHANNELS 6 Xposition Yposition Zposition Zrotation Xrotation Yrotation
			JOINT LeftArm
			{
				OFFSET 1.957740 0.000000 0.000000
				CHANNELS 6 Xposition Yposition Zposition Zrotation Xrotation Yrotation
				JOINT LeftForeArm
				{
					OFFSET 3.838815 0.000000 0.000000
					CHANNELS 6 Xposition Yposition Zposition Zrotation Xrotation Yrotation
					JOINT LeftHand
					{
						OFFSET 3.567674 0.000000 0.000000
						CHANNELS 6 Xposition Yposition Zposition Zrotation Xrotation Yrotation
						End Site
						{
							OFFSET 2.043400 0.000000 0.000000
						}
					}
				}
			}
		}
		JOINT RightShoulder
		{
			OFFSET -0.541081 0.072018 2.681385
			CHANNELS 6 Xposition Yposition Zposition Zrotation Xrotation Yrotation
			JOINT RightArm
			{
				OFFSET -1.957740 0.000000 0.000000
				CHANNELS 6 Xposition Yposition Zposition Zrotation Xrotation Yrotation
				JOINT RightForeArm
				{
					OFFSET -3.838815 0.000000 0.000000
					CHANNELS 6 Xposition Yposition Zposition Zrotation Xrotation Yrotation
					JOINT RightHand
					{
						OFFSET -3.567675 0.000000 0.000000
						CHANNELS 6 Xposition Yposition Zposition Zrotation Xrotation Yrotation
						End Site
						{
							OFFSET -2.043400 0.000000 0.000000
						}
					}
				}
			}
		}
	}
	JOINT LeftUpLeg
	{
		OFFSET 1.362270 0.000000 0.000000
		CHANNELS 6 Xposition Yposition Zposition Zrotation Xrotation Yrotation
		JOINT LeftLeg
		{
			OFFSET 0.000000 0.000001 -5.729235
			CHANNELS 6 Xposition Yposition Zposition Zrotation Xrotation Yrotation
			JOINT LeftFoot
			{
				OFFSET 0.000000 0.000001 -6.006450
				CHANNELS 6 Xposition Yposition Zposition Zrotation Xrotation Yrotation
				JOINT LeftToeBase
				{
					OFFSET 0.000000 -2.043405 -0.885475
					CHANNELS 6 Xposition Yposition Zposition Zrotation Xrotation Yrotation
					End Site
					{
						OFFSET 0.000000 -0.544907 0.000000
					}
				}
			}
		}
	}
	JOINT RightUpLeg
	{
		OFFSET -1.362270 0.000000 0.000000
		CHANNELS 6 Xposition Yposition Zposition Zrotation Xrotation Yrotation
		JOINT RightLeg
		{
			OFFSET 0.000000 0.000001 -5.729235
			CHANNELS 6 Xposition Yposition Zposition Zrotation Xrotation Yrotation
			JOINT RightFoot
			{
				OFFSET 0.000000 0.000001 -6.006450
				CHANNELS 6 Xposition Yposition Zposition Zrotation Xrotation Yrotation
				JOINT RightToeBase
				{
					OFFSET 0.000000 -2.043405 -0.885475
					CHANNELS 6 Xposition Yposition Zposition Zrotation Xrotation Yrotation
					End Site
					{
						OFFSET 0.000000 -0.544907 0.000000
					}
				}
			}
		}
	}
}
MOTION
Frames: 6
Frame Time: 0.016667
0.471038 0.646439 11.182849 2.321249 11.644960 -1.484607 -0.000000 -0.000000 4.165420 -1.260536 -5.134360 -4.388903 -0.000000 -0.000000 3.320822 2.566712 5.719504 -2.454551 0.000000 -0.272453 2.111518 3.029359 9.960382 3.548843 0.548650 0.072018 2.681386 0.092900 -8.889846 -21.667617 1.957739 -0.000000 -0.000002 -8.353394 -9.949527 8.424306 3.838815 0.000000 0.000000 -1.958462 -9.683146 -2.628853 3.567674 -0.000000 0.000000 3.917414 -9.465426 7.756330 -0.541082 0.072018 2.681385 -6.162881 -4.679598 18.289322 -1.957741 -0.000000 -0.000002 20.932353 21.986809 -1.849126 -3.838816 -0.000000 0.000000 66.873214 35.506742 47.151528 -3.567677 0.000003 0.000000 5.605003 5.440236 28.128944 1.362270 0.000000 -0.000001 19.050116 -35.338446 -14.124811 -0.000001 0.000001 -5.729237 6.859589 33.304870 6.372816 -0.000000 0.000001 -6.006451 15.106594 0.260709 8.253559 0.000000 -2.043404 -0.885476 -0.000001 0.000002 0.000001 -1.362270 0.000000 -0.000000 5.643539 -29.410467 30.469740 0.000001 0.000001 -5.729235 -15.580213 40.125254 -20.193598 0.000000 0.000001 -6.006451 -32.494748 -13.409639 2.417767 0.000000 -2.043404 -0.885476 -0.000001 0.000002 0.000000 
0.480646 0.643321 11.173944 2.261051 11.568241 -1.495872 0.000000 -0.000000 4.165420 -1.202918 -5.052497 -4.428539 -0.000000 -0.000000 3.320821 2.560074 5.749437 -2.394912 -0.000000 -0.272454 2.111518 3.016242 10.007667 3.567247 0.548650 0.072018 2.681383 0.115450 -8.887615 -21.639258 1.957741 -0.000000 0.000000 -8.332676 -9.948064 8.472885 3.838815 -0.000000 0.000000 -1.944444 -9.716085 -2.634752 3.567676 0.000001 -0.000000 3.943849 -9.494821 7.802548 -0.541082 0.072018 2.681385 -6.166198 -4.645137 18.277771 -1.957739 -0.000000 -0.000003 20.932262 21.914980 -1.964994 -3.838815 0.000000 0.000002 67.138430 35.692755 47.190224 -3.567676 -0.000000 0.000002 5.588468 5.442591 27.985698 1.362270 0.000000 0.000000 19.024589 -35.344836 -14.298564 0.000000 0.000001 -5.729235 6.826347 33.621261 6.620832 0.000000 0.000001 -6.006451 15.154296 -0.090948 8.402437 0.000000 -2.043405 -0.885475 0.000003 -0.000000 -0.000001 -1.362270 0.000000 -0.000000 5.537793 -29.217995 30.708773 -0.000000 0.000001 -5.729235 -15.943854 40.164033 -20.347463 0.000000 0.000001 -6.006451 -32.548075 -13.318565 1.980882 -0.000000 -2.043404 -0.885475 -0.000003 0.000001 0.000000 
0.490733 0.640481 11.164495 2.180122 11.514035 -1.483382 0.000000 -0.000001 4.165420 -1.128713 -4.995679 -4.491201 -0.000000 -0.000001 3.320820 2.555072 5.796550 -2.325058 -0.000000 -0.272455 2.111516 3.003031 10.012495 3.547429 0.548650 0.072018 2.681383 0.101431 -8.902394 -21.644803 1.957739 -0.000000 -0.000002 -8.288760 -9.919788 8.550099 3.838814 0.000000 -0.000000 -1.915154 -9.762169 -2.605469 3.567674 0.000000 0.000002 3.977094 -9.538146 7.785322 -0.541082 0.072018 2.681383 -6.140711 -4.642047 18.247301 -1.957740 0.000000 0.000002 20.908123 21.805685 -2.066224 -3.838814 0.000000 0.000001 67.347824 35.948781 47.198082 -3.567677 -0.000000 0.000001 5.534961 5.590458 27.930998 1.362270 0.000000 0.000000 19.062394 -35.403968 -14.428186 -0.000001 0.000001 -5.729235 6.932063 33.967624 6.719473 0.000000 0.000000 -6.006450 15.038147 -0.427412 8.548672 -0.000000 -2.043405 -0.885475 -0.000000 -0.000003 -0.000002 -1.362270 0.000000 -0.000000 5.434014 -29.068267 30.924481 -0.000000 0.000001 -5.729234 -16.270395 40.202326 -20.503263 -0.000000 0.000001 -6.006451 -32.550438 -13.120863 1.705143 0.000000 -2.043405 -0.885475 -0.000004 0.000002 0.000000 
0.499510 0.635976 11.155777 2.059616 11.464062 -1.476722 -0.000000 -0.000001 4.165419 -1.019655 -4.946141 -4.529881 0.000000 -0.000001 3.320821 2.537358 5.830106 -2.309290 0.000000 -0.272454 2.111520 2.983475 10.052136 3.597847 0.548651 0.072018 2.681383 0.115765 -8.915326 -21.638811 1.957741 -0.000000 0.000001 -8.280547 -10.019891 8.593307 3.838815 -0.000000 -0.000002 -1.829874 -9.714527 -2.571790 3.567674 0.000000 0.000000 3.934042 -9.488944 7.843678 -0.541081 0.072018 2.681384 -6.175521 -4.602705 18.209467 -1.957740 -0.000000 -0.000001 20.970066 21.657490 -2.170434 -3.838815 -0.000001 0.000002 67.490506 36.193258 47.235242 -3.567676 0.000001 0.000001 5.453285 5.738859 27.889553 1.362270 0.000000 -0.000001 18.849131 -35.370674 -14.727894 -0.000000 0.000001 -5.729235 6.883528 34.265901 7.058223 -0.000001 0.000000 -6.006450 15.183707 -0.764764 8.526183 -0.000000 -2.043404 -0.885476 -0.000000 0.000001 -0.000001 -1.362270 -0.000000 -0.000001 5.433450 -28.893199 31.154279 -0.000001 0.000001 -5.729234 -16.489134 40.188809 -20.693231 0.000000 0.000001 -6.006449 -32.549649 -12.894867 1.238034 0.000000 -2.043405 -0.885475 0.000003 0.000000 -0.000002 
0.508119 0.632204 11.146723 1.922479 11.422314 -1.445872 -0.000000 -0.000000 4.165421 -0.918915 -4.897422 -4.605043 -0.000000 -0.000001 3.320821 2.536109 5.873248 -2.284809 0.000000 -0.272455 2.111519 2.980797 10.061455 3.647805 0.548650 0.072018 2.681383 0.107742 -8.926381 -21.620154 1.957740 -0.000000 0.000001 -8.215664 -10.081271 8.638946 3.838814 0.000000 -0.000000 -1.800314 -9.706191 -2.537741 3.567676 0.000001 0.000001 3.969995 -9.478215 7.807839 -0.541082 0.072018 2.681386 -6.179905 -4.574553 18.169480 -1.957740 -0.000000 -0.000003 21.022120 21.556183 -2.240333 -3.838814 0.000000 -0.000001 67.712153 36.341480 47.225670 -3.567676 0.000003 0.000001 5.532297 5.799674 27.944906 1.362270 0.000000 -0.000000 18.775034 -35.378491 -14.957894 0.000000 0.000001 -5.729235 6.713644 34.544969 7.382772 0.000000 0.000001 -6.006451 15.330802 -1.065503 8.528037 -0.000000 -2.043404 -0.885475 -0.000002 -0.000000 0.000002 -1.362270 0.000000 0.000001 5.410900 -28.749567 31.301767 -0.000000 0.000001 -5.729235 -16.690008 40.132450 -20.765887 0.000000 0.000001 -6.006452 -32.482771 -12.485702 0.610482 0.000000 -2.043404 -0.885475 0.000001 -0.000002 -0.000000 
0.516449 0.629088 11.138549 1.781154 11.409217 -1.411268 -0.000000 -0.000001 4.165421 -0.811321 -4.911805 -4.662770 0.000000 -0.000000 3.320822 2.524039 5.955300 -2.276008 -0.000000 -0.272454 2.111519 2.966488 10.062898 3.677126 0.548651 0.072018 2.681387 0.135316 -8.922288 -21.641038 1.957738 -0.000000 -0.000000 -8.209180 -10.211280 8.717040 3.838814 0.000000 0.000001 -1.719680 -9.653451 -2.528737 3.567676 -0.000000 0.000001 3.997095 -9.419577 7.869700 -0.541082 0.072018 2.681387 -6.144207 -4.582167 18.154945 -1.957740 -0.000000 0.000001 21.071960 21.536881 -2.397041 -3.838815 0.000000 0.000000 67.792086 36.555579 47.341769 -3.567677 -0.000001 0.000001 5.441566 5.887716 27.988268 1.362270 0.000000 -0.000000 18.701558 -35.429837 -15.123588 0.000000 0.000000 -5.729235 6.865830 34.840068 7.420457 0.000000 0.000001 -6.006450 15.243761 -1.303803 8.540638 -0.000000 -2.043405 -0.885476 -0.000001 0.000000 0.000000 -1.362270 -0.000000 -0.000001 5.406622 -28.631111 31.446874 -0.000000 0.000001 -5.729235 -16.869181 40.034392 -20.834845 0.000000 0.000001 -6.006450 -32.245941 -11.969118 0.239554 0.000000 -2.043404 -0.885475 -0.000004 0.000000 -0.000002 
